<?xml version="1.0" encoding="UTF-8" standalone="no"?>
<!DOCTYPE svg PUBLIC "-//W3C//DTD SVG 1.1//EN"
 "http://www.w3.org/Graphics/SVG/1.1/DTD/svg11.dtd">
<!-- Generated by graphviz version 3.0.0 (20220226.1711)
 -->
<!-- Pages: 1 -->
<svg width="590pt" height="395pt"
 viewBox="0.00 0.00 590.00 395.00" xmlns="http://www.w3.org/2000/svg" xmlns:xlink="http://www.w3.org/1999/xlink">
<g id="graph0" class="graph" transform="scale(1 1) rotate(0) translate(4 391)">
<polygon fill="white" stroke="transparent" points="-4,4 -4,-391 586,-391 586,4 -4,4"/>
<!-- 2003134415008 -->
<g id="node1" class="node">
<title>2003134415008</title>
<polygon fill="none" stroke="black" points="234,-387 148,-387 148,-282 234,-282 234,-387"/>
<polygon fill="#ebebeb" stroke="transparent" points="156,-362.5 156,-382.5 180,-382.5 180,-362.5 156,-362.5"/>
<text text-anchor="start" x="159" y="-369.4" font-family="Times New Roman,serif" font-size="12.00">⭕</text>
<polygon fill="#ffffff" stroke="transparent" points="180,-362.5 180,-382.5 203,-382.5 203,-362.5 180,-362.5"/>
<text text-anchor="start" x="182.5" y="-369.4" font-family="Times New Roman,serif" font-size="12.00">✖️</text>
<polygon fill="#ebebeb" stroke="transparent" points="203,-362.5 203,-382.5 226,-382.5 226,-362.5 203,-362.5"/>
<polygon fill="#ffffff" stroke="transparent" points="156,-342.5 156,-362.5 180,-362.5 180,-342.5 156,-342.5"/>
<polygon fill="#ebebeb" stroke="transparent" points="180,-342.5 180,-362.5 203,-362.5 203,-342.5 180,-342.5"/>
<polygon fill="#ffffff" stroke="transparent" points="203,-342.5 203,-362.5 226,-362.5 226,-342.5 203,-342.5"/>
<text text-anchor="start" x="205.5" y="-349.4" font-family="Times New Roman,serif" font-size="12.00">✖️</text>
<polygon fill="#ebebeb" stroke="transparent" points="156,-322.5 156,-342.5 180,-342.5 180,-322.5 156,-322.5"/>
<text text-anchor="start" x="159" y="-329.4" font-family="Times New Roman,serif" font-size="12.00">⭕</text>
<polygon fill="#ffffff" stroke="transparent" points="180,-322.5 180,-342.5 203,-342.5 203,-322.5 180,-322.5"/>
<polygon fill="#ebebeb" stroke="transparent" points="203,-322.5 203,-342.5 226,-342.5 226,-322.5 203,-322.5"/>
<text text-anchor="start" x="205.5" y="-329.4" font-family="Times New Roman,serif" font-size="12.00">⭕</text>
<text text-anchor="start" x="158" y="-306.7" font-family="Helvetica,sans-Serif" font-size="11.00" fill="#424242">N=10, W=8.0</text>
<text text-anchor="start" x="181.5" y="-290.7" font-family="Helvetica,sans-Serif" font-size="11.00" fill="#424242">root</text>
</g>
<!-- 2003134416256 -->
<g id="node2" class="node">
<title>2003134416256</title>
<polygon fill="none" stroke="black" points="82,-246 0,-246 0,-141 82,-141 82,-246"/>
<polygon fill="#ebebeb" stroke="transparent" points="8,-221.5 8,-241.5 30,-241.5 30,-221.5 8,-221.5"/>
<text text-anchor="start" x="10" y="-228.4" font-family="Times New Roman,serif" font-size="12.00">⭕</text>
<polygon fill="#ffffff" stroke="transparent" points="30,-221.5 30,-241.5 52,-241.5 52,-221.5 30,-221.5"/>
<text text-anchor="start" x="32" y="-228.4" font-family="Times New Roman,serif" font-size="12.00">✖️</text>
<polygon fill="#ebebeb" stroke="transparent" points="52,-221.5 52,-241.5 74,-241.5 74,-221.5 52,-221.5"/>
<polygon fill="#ffffff" stroke="transparent" points="8,-201.5 8,-221.5 30,-221.5 30,-201.5 8,-201.5"/>
<polygon fill="#ebebeb" stroke="transparent" points="30,-201.5 30,-221.5 52,-221.5 52,-201.5 30,-201.5"/>
<polygon fill="#ffffff" stroke="transparent" points="52,-201.5 52,-221.5 74,-221.5 74,-201.5 52,-201.5"/>
<text text-anchor="start" x="54" y="-208.4" font-family="Times New Roman,serif" font-size="12.00">✖️</text>
<polygon fill="#ebebeb" stroke="transparent" points="8,-181.5 8,-201.5 30,-201.5 30,-181.5 8,-181.5"/>
<text text-anchor="start" x="10" y="-188.4" font-family="Times New Roman,serif" font-size="12.00">⭕</text>
<polygon fill="#ffffff" stroke="transparent" points="30,-181.5 30,-201.5 52,-201.5 52,-181.5 30,-181.5"/>
<polygon fill="#ebebeb" stroke="transparent" points="52,-181.5 52,-201.5 74,-201.5 74,-181.5 52,-181.5"/>
<text text-anchor="start" x="54" y="-188.4" font-family="Times New Roman,serif" font-size="12.00">⭕</text>
<text text-anchor="start" x="11" y="-165.7" font-family="Helvetica,sans-Serif" font-size="11.00" fill="#424242">N=2, W=0.0</text>
<text text-anchor="start" x="12" y="-149.7" font-family="Helvetica,sans-Serif" font-size="11.00" fill="#424242">UCB=1.517</text>
</g>
<!-- 2003134415008&#45;&gt;2003134416256 -->
<g id="edge1" class="edge">
<title>2003134415008&#45;&gt;2003134416256</title>
<path fill="none" stroke="black" d="M147.99,-297.21C130.07,-281.75 109.23,-263.31 91,-246 90.55,-245.57 90.09,-245.14 89.64,-244.7"/>
<polygon fill="black" stroke="black" points="91.82,-241.94 82.21,-237.48 86.94,-246.96 91.82,-241.94"/>
</g>
<!-- 2003134416736 -->
<g id="node4" class="node">
<title>2003134416736</title>
<polygon fill="none" stroke="black" points="182,-246 100,-246 100,-141 182,-141 182,-246"/>
<polygon fill="#ebebeb" stroke="transparent" points="108,-221.5 108,-241.5 130,-241.5 130,-221.5 108,-221.5"/>
<text text-anchor="start" x="110" y="-228.4" font-family="Times New Roman,serif" font-size="12.00">⭕</text>
<polygon fill="#ffffff" stroke="transparent" points="130,-221.5 130,-241.5 152,-241.5 152,-221.5 130,-221.5"/>
<text text-anchor="start" x="132" y="-228.4" font-family="Times New Roman,serif" font-size="12.00">✖️</text>
<polygon fill="#ebebeb" stroke="transparent" points="152,-221.5 152,-241.5 174,-241.5 174,-221.5 152,-221.5"/>
<polygon fill="#ffffff" stroke="transparent" points="108,-201.5 108,-221.5 130,-221.5 130,-201.5 108,-201.5"/>
<polygon fill="#ebebeb" stroke="transparent" points="130,-201.5 130,-221.5 152,-221.5 152,-201.5 130,-201.5"/>
<polygon fill="#ffffff" stroke="transparent" points="152,-201.5 152,-221.5 174,-221.5 174,-201.5 152,-201.5"/>
<text text-anchor="start" x="154" y="-208.4" font-family="Times New Roman,serif" font-size="12.00">✖️</text>
<polygon fill="#ebebeb" stroke="transparent" points="108,-181.5 108,-201.5 130,-201.5 130,-181.5 108,-181.5"/>
<text text-anchor="start" x="110" y="-188.4" font-family="Times New Roman,serif" font-size="12.00">⭕</text>
<polygon fill="#ffffff" stroke="transparent" points="130,-181.5 130,-201.5 152,-201.5 152,-181.5 130,-181.5"/>
<polygon fill="#ebebeb" stroke="transparent" points="152,-181.5 152,-201.5 174,-201.5 174,-181.5 152,-181.5"/>
<text text-anchor="start" x="154" y="-188.4" font-family="Times New Roman,serif" font-size="12.00">⭕</text>
<text text-anchor="start" x="111" y="-165.7" font-family="Helvetica,sans-Serif" font-size="11.00" fill="#424242">N=2, W=0.0</text>
<text text-anchor="start" x="112" y="-149.7" font-family="Helvetica,sans-Serif" font-size="11.00" fill="#424242">UCB=1.517</text>
</g>
<!-- 2003134415008&#45;&gt;2003134416736 -->
<g id="edge3" class="edge">
<title>2003134415008&#45;&gt;2003134416736</title>
<path fill="none" stroke="black" d="M172.38,-281.74C169.36,-273.33 166.2,-264.55 163.1,-255.93"/>
<polygon fill="black" stroke="black" points="166.31,-254.53 159.63,-246.3 159.73,-256.9 166.31,-254.53"/>
</g>
<!-- 2003134416352 -->
<g id="node6" class="node">
<title>2003134416352</title>
<polygon fill="none" stroke="black" points="282,-246 200,-246 200,-141 282,-141 282,-246"/>
<polygon fill="#ebebeb" stroke="transparent" points="208,-221.5 208,-241.5 230,-241.5 230,-221.5 208,-221.5"/>
<text text-anchor="start" x="210" y="-228.4" font-family="Times New Roman,serif" font-size="12.00">⭕</text>
<polygon fill="#ffffff" stroke="transparent" points="230,-221.5 230,-241.5 252,-241.5 252,-221.5 230,-221.5"/>
<text text-anchor="start" x="232" y="-228.4" font-family="Times New Roman,serif" font-size="12.00">✖️</text>
<polygon fill="#ebebeb" stroke="transparent" points="252,-221.5 252,-241.5 274,-241.5 274,-221.5 252,-221.5"/>
<polygon fill="#ffffff" stroke="transparent" points="208,-201.5 208,-221.5 230,-221.5 230,-201.5 208,-201.5"/>
<polygon fill="#ebebeb" stroke="transparent" points="230,-201.5 230,-221.5 252,-221.5 252,-201.5 230,-201.5"/>
<polygon fill="#ffffff" stroke="transparent" points="252,-201.5 252,-221.5 274,-221.5 274,-201.5 252,-201.5"/>
<text text-anchor="start" x="254" y="-208.4" font-family="Times New Roman,serif" font-size="12.00">✖️</text>
<polygon fill="#ebebeb" stroke="transparent" points="208,-181.5 208,-201.5 230,-201.5 230,-181.5 208,-181.5"/>
<text text-anchor="start" x="210" y="-188.4" font-family="Times New Roman,serif" font-size="12.00">⭕</text>
<polygon fill="#ffffff" stroke="transparent" points="230,-181.5 230,-201.5 252,-201.5 252,-181.5 230,-181.5"/>
<polygon fill="#ebebeb" stroke="transparent" points="252,-181.5 252,-201.5 274,-201.5 274,-181.5 252,-181.5"/>
<text text-anchor="start" x="254" y="-188.4" font-family="Times New Roman,serif" font-size="12.00">⭕</text>
<text text-anchor="start" x="211" y="-165.7" font-family="Helvetica,sans-Serif" font-size="11.00" fill="#424242">N=2, W=0.0</text>
<text text-anchor="start" x="212" y="-149.7" font-family="Helvetica,sans-Serif" font-size="11.00" fill="#424242">UCB=1.517</text>
</g>
<!-- 2003134415008&#45;&gt;2003134416352 -->
<g id="edge5" class="edge">
<title>2003134415008&#45;&gt;2003134416352</title>
<path fill="none" stroke="black" d="M209.62,-281.74C212.64,-273.33 215.8,-264.55 218.9,-255.93"/>
<polygon fill="black" stroke="black" points="222.27,-256.9 222.37,-246.3 215.69,-254.53 222.27,-256.9"/>
</g>
<!-- 2003134415296 -->
<g id="node8" class="node">
<title>2003134415296</title>
<polygon fill="none" stroke="black" points="432,-246 350,-246 350,-141 432,-141 432,-246"/>
<polygon fill="#ebebeb" stroke="transparent" points="358,-221.5 358,-241.5 380,-241.5 380,-221.5 358,-221.5"/>
<text text-anchor="start" x="360" y="-228.4" font-family="Times New Roman,serif" font-size="12.00">⭕</text>
<polygon fill="#ffffff" stroke="transparent" points="380,-221.5 380,-241.5 402,-241.5 402,-221.5 380,-221.5"/>
<text text-anchor="start" x="382" y="-228.4" font-family="Times New Roman,serif" font-size="12.00">✖️</text>
<polygon fill="#ebebeb" stroke="transparent" points="402,-221.5 402,-241.5 424,-241.5 424,-221.5 402,-221.5"/>
<polygon fill="#ffffff" stroke="transparent" points="358,-201.5 358,-221.5 380,-221.5 380,-201.5 358,-201.5"/>
<polygon fill="#ebebeb" stroke="transparent" points="380,-201.5 380,-221.5 402,-221.5 402,-201.5 380,-201.5"/>
<polygon fill="#ffffff" stroke="transparent" points="402,-201.5 402,-221.5 424,-221.5 424,-201.5 402,-201.5"/>
<text text-anchor="start" x="404" y="-208.4" font-family="Times New Roman,serif" font-size="12.00">✖️</text>
<polygon fill="#ebebeb" stroke="transparent" points="358,-181.5 358,-201.5 380,-201.5 380,-181.5 358,-181.5"/>
<text text-anchor="start" x="360" y="-188.4" font-family="Times New Roman,serif" font-size="12.00">⭕</text>
<polygon fill="#ffffff" stroke="transparent" points="380,-181.5 380,-201.5 402,-201.5 402,-181.5 380,-181.5"/>
<polygon fill="#ebebeb" stroke="transparent" points="402,-181.5 402,-201.5 424,-201.5 424,-181.5 402,-181.5"/>
<text text-anchor="start" x="404" y="-188.4" font-family="Times New Roman,serif" font-size="12.00">⭕</text>
<text text-anchor="start" x="361" y="-165.7" font-family="Helvetica,sans-Serif" font-size="11.00" fill="#424242">N=4, W=2.0</text>
<text text-anchor="start" x="362" y="-149.7" font-family="Helvetica,sans-Serif" font-size="11.00" fill="#424242">UCB=1.573</text>
</g>
<!-- 2003134415008&#45;&gt;2003134415296 -->
<g id="edge7" class="edge">
<title>2003134415008&#45;&gt;2003134415296</title>
<path fill="none" stroke="black" d="M234.4,-303.34C265.82,-281.5 308.37,-251.93 341.19,-229.12"/>
<polygon fill="black" stroke="black" points="343.52,-231.76 349.74,-223.18 339.53,-226.01 343.52,-231.76"/>
</g>
<!-- 2003134415584 -->
<g id="node3" class="node">
<title>2003134415584</title>
<polygon fill="none" stroke="black" points="82,-105 0,-105 0,0 82,0 82,-105"/>
<polygon fill="#ebebeb" stroke="transparent" points="8,-80.5 8,-100.5 30,-100.5 30,-80.5 8,-80.5"/>
<text text-anchor="start" x="10" y="-87.4" font-family="Times New Roman,serif" font-size="12.00">⭕</text>
<polygon fill="#ffffff" stroke="transparent" points="30,-80.5 30,-100.5 52,-100.5 52,-80.5 30,-80.5"/>
<text text-anchor="start" x="32" y="-87.4" font-family="Times New Roman,serif" font-size="12.00">✖️</text>
<polygon fill="#ebebeb" stroke="transparent" points="52,-80.5 52,-100.5 74,-100.5 74,-80.5 52,-80.5"/>
<polygon fill="#ffffff" stroke="transparent" points="8,-60.5 8,-80.5 30,-80.5 30,-60.5 8,-60.5"/>
<polygon fill="#ebebeb" stroke="transparent" points="30,-60.5 30,-80.5 52,-80.5 52,-60.5 30,-60.5"/>
<polygon fill="#ffffff" stroke="transparent" points="52,-60.5 52,-80.5 74,-80.5 74,-60.5 52,-60.5"/>
<text text-anchor="start" x="54" y="-67.4" font-family="Times New Roman,serif" font-size="12.00">✖️</text>
<polygon fill="#ebebeb" stroke="transparent" points="8,-40.5 8,-60.5 30,-60.5 30,-40.5 8,-40.5"/>
<text text-anchor="start" x="10" y="-47.4" font-family="Times New Roman,serif" font-size="12.00">⭕</text>
<polygon fill="#ffffff" stroke="transparent" points="30,-40.5 30,-60.5 52,-60.5 52,-40.5 30,-40.5"/>
<polygon fill="#ebebeb" stroke="transparent" points="52,-40.5 52,-60.5 74,-60.5 74,-40.5 52,-40.5"/>
<text text-anchor="start" x="54" y="-47.4" font-family="Times New Roman,serif" font-size="12.00">⭕</text>
<text text-anchor="start" x="11" y="-24.7" font-family="Helvetica,sans-Serif" font-size="11.00" fill="#424242">N=1, W=1.0</text>
<text text-anchor="start" x="12" y="-8.7" font-family="Helvetica,sans-Serif" font-size="11.00" fill="#424242">UCB=2.177</text>
</g>
<!-- 2003134416256&#45;&gt;2003134415584 -->
<g id="edge2" class="edge">
<title>2003134416256&#45;&gt;2003134415584</title>
<path fill="none" stroke="black" d="M41,-140.74C41,-132.51 41,-123.92 41,-115.49"/>
<polygon fill="black" stroke="black" points="44.5,-115.3 41,-105.3 37.5,-115.3 44.5,-115.3"/>
</g>
<!-- 2003134415104 -->
<g id="node5" class="node">
<title>2003134415104</title>
<polygon fill="none" stroke="black" points="182,-105 100,-105 100,0 182,0 182,-105"/>
<polygon fill="#ebebeb" stroke="transparent" points="108,-80.5 108,-100.5 130,-100.5 130,-80.5 108,-80.5"/>
<text text-anchor="start" x="110" y="-87.4" font-family="Times New Roman,serif" font-size="12.00">⭕</text>
<polygon fill="#ffffff" stroke="transparent" points="130,-80.5 130,-100.5 152,-100.5 152,-80.5 130,-80.5"/>
<text text-anchor="start" x="132" y="-87.4" font-family="Times New Roman,serif" font-size="12.00">✖️</text>
<polygon fill="#ebebeb" stroke="transparent" points="152,-80.5 152,-100.5 174,-100.5 174,-80.5 152,-80.5"/>
<polygon fill="#ffffff" stroke="transparent" points="108,-60.5 108,-80.5 130,-80.5 130,-60.5 108,-60.5"/>
<polygon fill="#ebebeb" stroke="transparent" points="130,-60.5 130,-80.5 152,-80.5 152,-60.5 130,-60.5"/>
<polygon fill="#ffffff" stroke="transparent" points="152,-60.5 152,-80.5 174,-80.5 174,-60.5 152,-60.5"/>
<text text-anchor="start" x="154" y="-67.4" font-family="Times New Roman,serif" font-size="12.00">✖️</text>
<polygon fill="#ebebeb" stroke="transparent" points="108,-40.5 108,-60.5 130,-60.5 130,-40.5 108,-40.5"/>
<text text-anchor="start" x="110" y="-47.4" font-family="Times New Roman,serif" font-size="12.00">⭕</text>
<polygon fill="#ffffff" stroke="transparent" points="130,-40.5 130,-60.5 152,-60.5 152,-40.5 130,-40.5"/>
<polygon fill="#ebebeb" stroke="transparent" points="152,-40.5 152,-60.5 174,-60.5 174,-40.5 152,-40.5"/>
<text text-anchor="start" x="154" y="-47.4" font-family="Times New Roman,serif" font-size="12.00">⭕</text>
<text text-anchor="start" x="111" y="-24.7" font-family="Helvetica,sans-Serif" font-size="11.00" fill="#424242">N=1, W=1.0</text>
<text text-anchor="start" x="112" y="-8.7" font-family="Helvetica,sans-Serif" font-size="11.00" fill="#424242">UCB=2.177</text>
</g>
<!-- 2003134416736&#45;&gt;2003134415104 -->
<g id="edge4" class="edge">
<title>2003134416736&#45;&gt;2003134415104</title>
<path fill="none" stroke="black" d="M141,-140.74C141,-132.51 141,-123.92 141,-115.49"/>
<polygon fill="black" stroke="black" points="144.5,-115.3 141,-105.3 137.5,-115.3 144.5,-115.3"/>
</g>
<!-- 2003134417120 -->
<g id="node7" class="node">
<title>2003134417120</title>
<polygon fill="none" stroke="black" points="282,-105 200,-105 200,0 282,0 282,-105"/>
<polygon fill="#ebebeb" stroke="transparent" points="208,-80.5 208,-100.5 230,-100.5 230,-80.5 208,-80.5"/>
<text text-anchor="start" x="210" y="-87.4" font-family="Times New Roman,serif" font-size="12.00">⭕</text>
<polygon fill="#ffffff" stroke="transparent" points="230,-80.5 230,-100.5 252,-100.5 252,-80.5 230,-80.5"/>
<text text-anchor="start" x="232" y="-87.4" font-family="Times New Roman,serif" font-size="12.00">✖️</text>
<polygon fill="#ebebeb" stroke="transparent" points="252,-80.5 252,-100.5 274,-100.5 274,-80.5 252,-80.5"/>
<polygon fill="#ffffff" stroke="transparent" points="208,-60.5 208,-80.5 230,-80.5 230,-60.5 208,-60.5"/>
<polygon fill="#ebebeb" stroke="transparent" points="230,-60.5 230,-80.5 252,-80.5 252,-60.5 230,-60.5"/>
<polygon fill="#ffffff" stroke="transparent" points="252,-60.5 252,-80.5 274,-80.5 274,-60.5 252,-60.5"/>
<text text-anchor="start" x="254" y="-67.4" font-family="Times New Roman,serif" font-size="12.00">✖️</text>
<polygon fill="#ebebeb" stroke="transparent" points="208,-40.5 208,-60.5 230,-60.5 230,-40.5 208,-40.5"/>
<text text-anchor="start" x="210" y="-47.4" font-family="Times New Roman,serif" font-size="12.00">⭕</text>
<polygon fill="#ffffff" stroke="transparent" points="230,-40.5 230,-60.5 252,-60.5 252,-40.5 230,-40.5"/>
<polygon fill="#ebebeb" stroke="transparent" points="252,-40.5 252,-60.5 274,-60.5 274,-40.5 252,-40.5"/>
<text text-anchor="start" x="254" y="-47.4" font-family="Times New Roman,serif" font-size="12.00">⭕</text>
<text text-anchor="start" x="211" y="-24.7" font-family="Helvetica,sans-Serif" font-size="11.00" fill="#424242">N=1, W=1.0</text>
<text text-anchor="start" x="212" y="-8.7" font-family="Helvetica,sans-Serif" font-size="11.00" fill="#424242">UCB=2.177</text>
</g>
<!-- 2003134416352&#45;&gt;2003134417120 -->
<g id="edge6" class="edge">
<title>2003134416352&#45;&gt;2003134417120</title>
<path fill="none" stroke="black" d="M241,-140.74C241,-132.51 241,-123.92 241,-115.49"/>
<polygon fill="black" stroke="black" points="244.5,-115.3 241,-105.3 237.5,-115.3 244.5,-115.3"/>
</g>
<!-- 2003134416928 -->
<g id="node9" class="node">
<title>2003134416928</title>
<polygon fill="none" stroke="black" points="382,-105 300,-105 300,0 382,0 382,-105"/>
<polygon fill="#ebebeb" stroke="transparent" points="308,-80.5 308,-100.5 330,-100.5 330,-80.5 308,-80.5"/>
<text text-anchor="start" x="310" y="-87.4" font-family="Times New Roman,serif" font-size="12.00">⭕</text>
<polygon fill="#ffffff" stroke="transparent" points="330,-80.5 330,-100.5 352,-100.5 352,-80.5 330,-80.5"/>
<text text-anchor="start" x="332" y="-87.4" font-family="Times New Roman,serif" font-size="12.00">✖️</text>
<polygon fill="#ebebeb" stroke="transparent" points="352,-80.5 352,-100.5 374,-100.5 374,-80.5 352,-80.5"/>
<polygon fill="#ffffff" stroke="transparent" points="308,-60.5 308,-80.5 330,-80.5 330,-60.5 308,-60.5"/>
<polygon fill="#ebebeb" stroke="transparent" points="330,-60.5 330,-80.5 352,-80.5 352,-60.5 330,-60.5"/>
<polygon fill="#ffffff" stroke="transparent" points="352,-60.5 352,-80.5 374,-80.5 374,-60.5 352,-60.5"/>
<text text-anchor="start" x="354" y="-67.4" font-family="Times New Roman,serif" font-size="12.00">✖️</text>
<polygon fill="#ebebeb" stroke="transparent" points="308,-40.5 308,-60.5 330,-60.5 330,-40.5 308,-40.5"/>
<text text-anchor="start" x="310" y="-47.4" font-family="Times New Roman,serif" font-size="12.00">⭕</text>
<polygon fill="#ffffff" stroke="transparent" points="330,-40.5 330,-60.5 352,-60.5 352,-40.5 330,-40.5"/>
<polygon fill="#ebebeb" stroke="transparent" points="352,-40.5 352,-60.5 374,-60.5 374,-40.5 352,-40.5"/>
<text text-anchor="start" x="354" y="-47.4" font-family="Times New Roman,serif" font-size="12.00">⭕</text>
<text text-anchor="start" x="311" y="-24.7" font-family="Helvetica,sans-Serif" font-size="11.00" fill="#424242">N=1, W=0.0</text>
<text text-anchor="start" x="312" y="-8.7" font-family="Helvetica,sans-Serif" font-size="11.00" fill="#424242">UCB=1.665</text>
</g>
<!-- 2003134415296&#45;&gt;2003134416928 -->
<g id="edge8" class="edge">
<title>2003134415296&#45;&gt;2003134416928</title>
<path fill="none" stroke="black" d="M372.38,-140.74C369.36,-132.33 366.2,-123.55 363.1,-114.93"/>
<polygon fill="black" stroke="black" points="366.31,-113.53 359.63,-105.3 359.73,-115.9 366.31,-113.53"/>
</g>
<!-- 2003134416640 -->
<g id="node10" class="node">
<title>2003134416640</title>
<polygon fill="none" stroke="black" points="482,-105 400,-105 400,0 482,0 482,-105"/>
<polygon fill="#ebebeb" stroke="transparent" points="408,-80.5 408,-100.5 430,-100.5 430,-80.5 408,-80.5"/>
<text text-anchor="start" x="410" y="-87.4" font-family="Times New Roman,serif" font-size="12.00">⭕</text>
<polygon fill="#ffffff" stroke="transparent" points="430,-80.5 430,-100.5 452,-100.5 452,-80.5 430,-80.5"/>
<text text-anchor="start" x="432" y="-87.4" font-family="Times New Roman,serif" font-size="12.00">✖️</text>
<polygon fill="#ebebeb" stroke="transparent" points="452,-80.5 452,-100.5 474,-100.5 474,-80.5 452,-80.5"/>
<polygon fill="#ffffff" stroke="transparent" points="408,-60.5 408,-80.5 430,-80.5 430,-60.5 408,-60.5"/>
<polygon fill="#ebebeb" stroke="transparent" points="430,-60.5 430,-80.5 452,-80.5 452,-60.5 430,-60.5"/>
<polygon fill="#ffffff" stroke="transparent" points="452,-60.5 452,-80.5 474,-80.5 474,-60.5 452,-60.5"/>
<text text-anchor="start" x="454" y="-67.4" font-family="Times New Roman,serif" font-size="12.00">✖️</text>
<polygon fill="#ebebeb" stroke="transparent" points="408,-40.5 408,-60.5 430,-60.5 430,-40.5 408,-40.5"/>
<text text-anchor="start" x="410" y="-47.4" font-family="Times New Roman,serif" font-size="12.00">⭕</text>
<polygon fill="#ffffff" stroke="transparent" points="430,-40.5 430,-60.5 452,-60.5 452,-40.5 430,-40.5"/>
<polygon fill="#ebebeb" stroke="transparent" points="452,-40.5 452,-60.5 474,-60.5 474,-40.5 452,-40.5"/>
<text text-anchor="start" x="454" y="-47.4" font-family="Times New Roman,serif" font-size="12.00">⭕</text>
<text text-anchor="start" x="411" y="-24.7" font-family="Helvetica,sans-Serif" font-size="11.00" fill="#424242">N=1, W=1.0</text>
<text text-anchor="start" x="412" y="-8.7" font-family="Helvetica,sans-Serif" font-size="11.00" fill="#424242">UCB=2.665</text>
</g>
<!-- 2003134415296&#45;&gt;2003134416640 -->
<g id="edge9" class="edge">
<title>2003134415296&#45;&gt;2003134416640</title>
<path fill="none" stroke="black" d="M409.62,-140.74C412.64,-132.33 415.8,-123.55 418.9,-114.93"/>
<polygon fill="black" stroke="black" points="422.27,-115.9 422.37,-105.3 415.69,-113.53 422.27,-115.9"/>
</g>
<!-- 2003134417216 -->
<g id="node11" class="node">
<title>2003134417216</title>
<polygon fill="none" stroke="black" points="582,-105 500,-105 500,0 582,0 582,-105"/>
<polygon fill="#ebebeb" stroke="transparent" points="508,-80.5 508,-100.5 530,-100.5 530,-80.5 508,-80.5"/>
<text text-anchor="start" x="510" y="-87.4" font-family="Times New Roman,serif" font-size="12.00">⭕</text>
<polygon fill="#ffffff" stroke="transparent" points="530,-80.5 530,-100.5 552,-100.5 552,-80.5 530,-80.5"/>
<text text-anchor="start" x="532" y="-87.4" font-family="Times New Roman,serif" font-size="12.00">✖️</text>
<polygon fill="#ebebeb" stroke="transparent" points="552,-80.5 552,-100.5 574,-100.5 574,-80.5 552,-80.5"/>
<polygon fill="#ffffff" stroke="transparent" points="508,-60.5 508,-80.5 530,-80.5 530,-60.5 508,-60.5"/>
<polygon fill="#ebebeb" stroke="transparent" points="530,-60.5 530,-80.5 552,-80.5 552,-60.5 530,-60.5"/>
<polygon fill="#ffffff" stroke="transparent" points="552,-60.5 552,-80.5 574,-80.5 574,-60.5 552,-60.5"/>
<text text-anchor="start" x="554" y="-67.4" font-family="Times New Roman,serif" font-size="12.00">✖️</text>
<polygon fill="#ebebeb" stroke="transparent" points="508,-40.5 508,-60.5 530,-60.5 530,-40.5 508,-40.5"/>
<text text-anchor="start" x="510" y="-47.4" font-family="Times New Roman,serif" font-size="12.00">⭕</text>
<polygon fill="#ffffff" stroke="transparent" points="530,-40.5 530,-60.5 552,-60.5 552,-40.5 530,-40.5"/>
<polygon fill="#ebebeb" stroke="transparent" points="552,-40.5 552,-60.5 574,-60.5 574,-40.5 552,-40.5"/>
<text text-anchor="start" x="554" y="-47.4" font-family="Times New Roman,serif" font-size="12.00">⭕</text>
<text text-anchor="start" x="511" y="-24.7" font-family="Helvetica,sans-Serif" font-size="11.00" fill="#424242">N=1, W=1.0</text>
<text text-anchor="start" x="512" y="-8.7" font-family="Helvetica,sans-Serif" font-size="11.00" fill="#424242">UCB=2.665</text>
</g>
<!-- 2003134415296&#45;&gt;2003134417216 -->
<g id="edge10" class="edge">
<title>2003134415296&#45;&gt;2003134417216</title>
<path fill="none" stroke="black" d="M432.05,-157.9C450.4,-142.1 472.1,-122.95 491,-105 491.45,-104.57 491.91,-104.14 492.36,-103.7"/>
<polygon fill="black" stroke="black" points="495.06,-105.96 499.79,-96.48 490.18,-100.94 495.06,-105.96"/>
</g>
</g>
</svg>
